<?xml version="1.0" standalone="no"?>
<!DOCTYPE svg PUBLIC "-//W3C//DTD SVG 20010904//EN"
 "http://www.w3.org/TR/2001/REC-SVG-20010904/DTD/svg10.dtd">
<svg version="1.0" xmlns="http://www.w3.org/2000/svg"
 width="1408.000000pt" height="541.000000pt" viewBox="0 0 1408.000000 541.000000"
 preserveAspectRatio="xMidYMid meet">

<g transform="translate(0.000000,541.000000) scale(0.100000,-0.100000)"
fill="#000000" stroke="none">
<path d="M3245 4990 c-27 -5 -68 -15 -90 -23 l-40 -14 -3 -144 c-6 -319 68
-802 148 -966 79 -160 243 -253 446 -253 88 0 134 13 268 74 43 20 80 35 81
34 1 -2 -1 -73 -6 -158 -17 -340 -22 -735 -10 -758 12 -22 15 -22 179 -20
l167 3 12 26 c7 14 19 68 27 120 36 230 54 630 62 1434 7 581 6 601 -12 616
-53 45 -210 54 -295 18 -27 -12 -49 -24 -49 -28 0 -41 -25 -263 -40 -356 -59
-372 -185 -565 -367 -565 -49 0 -55 3 -106 53 -60 58 -102 136 -117 216 -5 29
-10 188 -10 352 l0 298 -32 23 c-37 26 -126 33 -213 18z"/>
<path d="M9705 4949 c-102 -13 -105 -13 -405 -4 -197 5 -283 4 -304 -4 l-28
-11 4 -103 c4 -120 26 -170 81 -184 18 -4 164 -7 325 -5 160 1 292 -1 292 -5
0 -16 -197 -375 -250 -454 -61 -92 -205 -348 -199 -353 2 -2 41 -13 86 -25 99
-25 168 -55 275 -118 127 -76 179 -162 177 -297 -1 -119 -12 -159 -63 -235
-85 -125 -151 -145 -392 -118 -126 14 -280 46 -346 72 -28 11 -40 -36 -45
-187 l-4 -137 39 -11 c146 -39 464 -53 592 -26 97 21 225 73 273 112 23 19 56
41 74 49 60 28 154 174 183 285 6 25 16 62 22 82 13 46 4 224 -17 323 -24 113
-55 164 -161 264 -84 80 -191 162 -225 173 -9 3 -8 11 3 29 9 13 94 152 191
309 287 468 337 554 324 561 -7 4 -77 9 -157 13 -80 3 -174 8 -210 10 -36 3
-96 0 -135 -5z"/>
<path d="M4863 4929 c-101 -13 -99 -10 -107 -154 -4 -69 -7 -208 -6 -308 0
-100 -4 -276 -9 -392 -14 -286 8 -1273 28 -1276 55 -6 801 -7 924 -1 154 8
169 10 191 31 55 52 61 315 7 336 -9 3 -187 10 -396 15 -209 5 -393 13 -409
16 l-29 7 7 105 c3 58 6 158 6 223 0 115 1 119 23 124 12 3 168 9 347 13 379
10 391 13 411 84 9 34 8 60 -2 123 -12 70 -17 81 -41 93 -38 18 -240 31 -483
32 -115 0 -220 3 -232 6 -11 3 -23 16 -25 27 -2 12 -2 152 0 311 l5 289 399
-6 c454 -7 430 -12 444 78 6 45 -1 160 -12 189 -12 30 -130 39 -559 41 -231 1
-448 -1 -482 -6z"/>
<path d="M6358 4929 c-20 -6 -39 -17 -42 -25 -18 -48 -41 -478 -38 -719 3
-170 -2 -357 -13 -540 -24 -378 -10 -804 25 -839 16 -16 218 -14 256 2 31 13
32 15 22 50 -20 72 5 636 38 834 5 35 8 37 52 43 82 11 215 46 296 79 134 53
242 174 295 331 11 33 27 77 35 97 22 51 22 226 0 299 -64 216 -205 320 -504
374 -114 20 -370 29 -422 14z m407 -316 c92 -21 135 -43 177 -93 63 -73 75
-163 32 -249 -43 -86 -140 -137 -303 -159 l-64 -9 6 156 c4 86 7 207 7 269 l0
113 38 -6 c20 -3 69 -13 107 -22z"/>
<path d="M7643 4929 c-101 -13 -99 -10 -107 -154 -4 -69 -7 -208 -6 -308 0
-100 -4 -276 -9 -392 -14 -286 8 -1273 28 -1276 55 -6 801 -7 924 -1 154 8
169 10 191 31 55 52 61 315 7 336 -9 3 -187 10 -396 15 -209 5 -393 13 -409
16 l-29 7 7 105 c3 58 6 158 6 223 0 115 1 119 23 124 12 3 168 9 347 13 379
10 391 13 411 84 9 34 8 60 -2 123 -12 70 -17 81 -41 93 -38 18 -240 31 -483
32 -115 0 -220 3 -232 6 -11 3 -23 16 -25 27 -2 12 -2 152 0 311 l5 289 399
-6 c454 -7 430 -12 444 78 6 45 -1 160 -12 189 -12 30 -130 39 -559 41 -231 1
-448 -1 -482 -6z"/>
<path d="M8771 2621 c-18 -5 -50 -16 -70 -26 l-38 -17 -12 -135 c-31 -358
-104 -601 -212 -713 -51 -53 -92 -72 -165 -78 l-62 -5 -56 53 c-36 34 -68 77
-89 119 l-32 65 -5 337 c-5 363 -4 355 -61 385 -53 27 -247 7 -307 -32 l-25
-16 7 -177 c14 -386 74 -753 147 -908 80 -168 242 -262 451 -263 86 0 131 12
257 71 46 22 86 37 88 35 2 -2 -1 -97 -7 -212 -14 -295 -13 -697 2 -712 8 -8
61 -12 173 -12 l162 0 12 26 c28 63 54 291 71 649 13 249 26 1470 17 1507 -5
18 -19 31 -46 42 -49 19 -154 28 -200 17z"/>
<path d="M9974 2599 c-191 -22 -444 -168 -514 -296 -11 -21 -36 -57 -54 -80
-81 -100 -179 -465 -194 -723 -16 -274 -4 -381 75 -640 92 -304 211 -439 428
-485 90 -19 162 -19 293 1 155 23 270 63 384 134 193 121 296 278 372 573 35
135 39 176 36 427 -1 164 -104 564 -191 745 -59 123 -214 261 -367 326 -72 31
-128 35 -268 18z m130 -285 c9 -3 16 -15 16 -25 0 -14 7 -19 29 -19 15 0 40
-9 54 -20 14 -11 32 -20 41 -20 9 0 16 -1 17 -2 0 -2 3 -38 5 -81 6 -91 -6
-118 -61 -138 -22 -8 -35 -20 -35 -31 0 -31 40 -43 145 -45 132 -2 190 -11
212 -35 17 -19 16 -19 -32 -16 -75 5 -80 -5 -94 -161 -13 -145 -16 -157 -38
-165 -22 -9 -37 3 -87 67 l-44 57 -6 -48 c-4 -26 -9 -81 -11 -122 -3 -41 -7
-94 -11 -116 -4 -29 3 -88 26 -195 34 -161 35 -188 14 -411 -7 -64 -6 -66 17
-70 19 -2 25 -10 27 -35 4 -40 -22 -58 -95 -68 -44 -6 -54 -4 -72 14 -14 14
-20 29 -16 44 3 12 12 92 20 177 l16 155 -32 130 c-17 71 -35 133 -39 138 -3
4 -17 -65 -30 -153 l-23 -160 -85 -115 c-63 -87 -82 -119 -73 -128 18 -18 13
-65 -8 -77 -25 -13 -112 -13 -145 0 -49 18 -35 52 81 205 l108 140 22 173 c20
152 21 176 8 195 -7 12 -15 48 -16 80 -2 46 2 61 18 80 18 19 22 44 33 192 7
94 18 182 25 197 13 27 12 28 -25 38 -20 5 -70 24 -110 40 -40 17 -74 30 -76
30 -2 0 -4 -13 -4 -30 0 -23 15 -46 65 -100 66 -72 95 -135 95 -203 0 -79 -68
-137 -159 -137 -62 0 -105 17 -155 60 -47 42 -66 79 -66 130 0 63 23 105 102
187 l73 75 -29 21 c-33 25 -146 139 -146 147 0 3 7 14 15 25 15 18 17 17 73
-38 78 -77 96 -77 179 5 61 60 63 61 63 35 0 -38 -21 -76 -64 -115 -20 -18
-36 -36 -36 -41 0 -15 171 -73 219 -74 39 -2 47 2 60 25 14 25 14 30 -1 56
-28 47 -48 116 -38 126 6 6 10 17 10 26 0 9 10 27 22 40 15 16 18 25 10 28
-15 5 -15 35 0 50 14 14 20 14 42 6z"/>
<path d="M10252 1838 c11 -29 32 -78 46 -108 l26 -55 7 40 c4 22 9 65 10 95 3
50 1 56 -22 67 -13 7 -38 13 -56 13 l-31 0 20 -52z"/>
<path d="M3175 2573 c-194 -4 -185 4 -185 -182 0 -75 -7 -293 -15 -486 -31
-742 -29 -1475 4 -1508 8 -8 56 -12 147 -12 l136 0 25 29 24 29 -6 676 c-4
372 -10 755 -15 851 -5 96 -5 178 -1 182 9 10 601 62 608 54 4 -3 0 -216 -7
-473 -15 -551 -10 -1216 10 -1281 7 -24 22 -48 34 -54 24 -13 158 -16 227 -5
l46 8 6 972 c4 655 9 1004 17 1070 7 54 9 101 5 105 -3 4 -138 10 -298 14
-161 3 -364 8 -452 11 -88 2 -227 2 -310 0z"/>
<path d="M5054 2553 l-72 -4 -7 -37 c-4 -20 -9 -132 -11 -248 -2 -151 -9 -245
-23 -330 -20 -116 -30 -219 -51 -534 -26 -376 -113 -592 -263 -655 -17 -7 -67
-16 -110 -20 -43 -4 -84 -13 -91 -20 -19 -19 -31 -315 -14 -327 19 -13 170 0
260 22 101 25 164 58 235 124 131 121 212 318 258 624 8 57 19 122 25 145 14
67 38 263 65 547 14 146 28 288 31 316 l6 51 74 6 c104 9 194 -1 194 -22 1 -9
9 -151 19 -316 11 -190 15 -329 10 -380 -10 -103 -11 -403 -2 -783 l6 -302
170 0 170 0 -6 88 c-4 48 -9 337 -12 642 -6 576 -20 1189 -31 1322 -7 78 -7
78 -38 82 -41 7 -701 14 -792 9z"/>
<path d="M6335 2553 c-71 -8 -103 -23 -110 -51 -8 -27 -12 -246 -22 -992 -6
-401 12 -1068 28 -1085 7 -6 195 -10 527 -10 578 1 583 2 609 62 21 50 28 189
14 251 -11 43 -17 52 -40 57 -15 3 -194 10 -397 15 -203 5 -382 13 -398 16
-26 6 -28 9 -22 43 3 20 6 120 6 223 0 186 0 188 23 193 12 3 168 9 347 13
375 10 390 13 411 80 14 47 -3 188 -24 209 -24 25 -116 34 -392 39 -154 2
-299 7 -322 10 l-43 5 0 287 c0 158 3 297 6 310 l6 22 405 0 404 0 16 38 c12
28 14 57 10 122 -3 47 -8 92 -12 101 -13 35 -103 42 -560 44 -242 1 -453 0
-470 -2z"/>
</g>
</svg>
