<?xml version="1.0" standalone="no"?>
<!DOCTYPE svg PUBLIC "-//W3C//DTD SVG 20010904//EN"
 "http://www.w3.org/TR/2001/REC-SVG-20010904/DTD/svg10.dtd">
<svg version="1.0" xmlns="http://www.w3.org/2000/svg"
 width="677.000000pt" height="1319.000000pt" viewBox="0 0 677.000000 1319.000000"
 preserveAspectRatio="xMidYMid meet">

<g transform="translate(0.000000,1319.000000) scale(0.100000,-0.100000)"
fill="#000000" stroke="none">
<path d="M3209 10337 c-55 -29 -91 -95 -97 -176 -6 -77 21 -130 84 -167 l47
-27 -29 -20 c-58 -41 -150 -143 -176 -197 -33 -69 -58 -164 -58 -223 0 -40 -3
-46 -26 -51 -34 -9 -58 -66 -52 -128 6 -56 30 -97 68 -111 26 -10 28 -15 34
-88 8 -96 47 -234 88 -311 17 -32 53 -84 81 -115 l50 -57 -5 -87 c-8 -135 -58
-229 -157 -295 -40 -26 -50 -28 -130 -27 -199 3 -616 124 -1126 326 -236 94
-218 84 -200 110 8 12 15 42 15 68 l0 47 99 66 c219 146 364 334 432 561 23
78 37 297 23 353 l-9 32 -389 -395 c-349 -356 -390 -394 -405 -381 -43 38
-138 39 -212 1 l-28 -15 -356 348 c-196 191 -360 348 -365 350 -5 2 -22 -20
-38 -48 l-29 -51 17 -94 c9 -52 15 -95 13 -95 -2 0 -25 16 -50 35 -25 19 -47
34 -49 33 -1 -2 -14 -23 -27 -47 l-26 -44 129 -136 c70 -75 156 -172 190 -216
140 -178 330 -339 451 -382 39 -14 48 -22 53 -46 8 -40 62 -90 121 -112 28
-10 52 -20 54 -22 14 -11 -85 -121 -307 -343 -298 -296 -379 -387 -472 -527
-313 -473 -303 -920 30 -1287 192 -212 467 -390 705 -457 240 -67 497 -64 697
7 487 175 665 552 527 1112 -36 146 -85 279 -139 377 -102 184 -275 405 -413
527 -171 152 -223 211 -271 310 -35 70 -49 113 -58 174 -10 78 -5 174 11 174
4 0 83 -32 177 -71 485 -203 922 -352 1098 -374 l57 -7 -29 -18 c-64 -39 -128
-152 -153 -270 -16 -77 -134 -1534 -145 -1795 -7 -183 -19 -213 -132 -340
-131 -148 -150 -187 -112 -225 21 -21 21 -24 9 -132 -14 -130 -7 -307 17 -393
22 -85 70 -170 119 -213 l42 -37 -128 -1007 c-80 -629 -133 -1014 -141 -1026
-7 -10 -130 -168 -273 -352 -414 -532 -703 -914 -858 -1133 -115 -162 -140
-279 -82 -386 28 -50 82 -104 131 -129 81 -42 604 -63 737 -29 178 45 263 140
262 292 -1 61 -44 157 -102 229 l-40 50 82 110 c45 61 261 359 481 661 l401
550 138 920 c76 506 141 923 144 927 3 4 96 -349 205 -783 l200 -791 -38 -381
c-125 -1292 -147 -1498 -161 -1557 -18 -78 -19 -91 -3 -142 18 -59 86 -129
169 -173 l73 -38 130 7 c323 16 556 75 662 168 60 53 78 106 77 220 -3 186
-69 252 -262 260 l-63 3 5 55 c3 30 40 426 82 880 l77 825 -191 918 -191 918
22 222 c19 204 23 225 46 255 33 43 40 114 18 179 -17 47 -16 65 36 646 29
328 55 597 58 597 3 -1 34 -42 69 -92 86 -120 282 -372 373 -478 140 -163 282
-197 391 -92 79 75 86 102 112 416 24 278 105 1276 105 1288 0 3 16 9 35 12
46 9 101 57 115 102 12 34 13 35 53 29 82 -10 609 -56 618 -53 5 2 -48 60
-118 130 l-128 127 -209 18 c-191 16 -211 19 -230 40 -12 12 -34 27 -51 33
-52 20 -227 40 -351 40 -134 0 -212 -17 -249 -54 -16 -16 -32 -22 -51 -19
-485 57 -606 78 -701 123 -49 23 -69 39 -92 75 -29 47 -51 120 -51 174 0 27 3
28 72 41 151 27 270 84 359 172 64 64 140 179 164 248 44 124 22 346 -57 588
l-20 63 21 23 c52 56 45 140 -19 207 -38 41 -88 56 -130 41 -22 -8 -31 -3 -76
37 -81 74 -193 146 -274 177 -66 24 -89 28 -192 28 l-118 1 0 57 c0 68 -12
103 -48 141 -55 58 -212 76 -293 34z m1286 -2487 c116 -11 213 -20 217 -20 4
0 10 -10 14 -22 3 -12 25 -42 49 -67 l42 -46 -45 -490 c-25 -269 -47 -492 -50
-495 -16 -19 -150 230 -250 465 -91 213 -272 679 -272 700 0 2 19 2 43 0 23
-3 137 -14 252 -25z"/>
</g>
</svg>
