<?xml version="1.0" standalone="no"?>
<!DOCTYPE svg PUBLIC "-//W3C//DTD SVG 20010904//EN"
 "http://www.w3.org/TR/2001/REC-SVG-20010904/DTD/svg10.dtd">
<svg version="1.0" xmlns="http://www.w3.org/2000/svg"
 width="935.000000pt" height="714.000000pt" viewBox="0 0 935.000000 714.000000"
 preserveAspectRatio="xMidYMid meet">

<g transform="translate(0.000000,714.000000) scale(0.100000,-0.100000)"
fill="#000000" stroke="none">
<path d="M3835 6735 c-220 -44 -235 -48 -235 -59 0 -13 105 -576 120 -639 4
-21 11 -41 14 -44 5 -6 396 66 396 73 0 6 -21 109 -25 120 -3 10 -103 -3 -236
-31 -24 -6 -26 -3 -38 60 -7 36 -11 68 -9 70 2 3 38 11 79 20 41 8 83 17 95
20 19 4 20 8 10 70 -11 75 -6 74 -129 50 -43 -8 -80 -15 -82 -15 -2 0 -9 26
-15 58 -6 31 -13 64 -16 72 -3 13 19 20 121 39 69 12 128 27 131 33 4 5 1 36
-6 69 -15 69 -4 67 -175 34z"/>
<path d="M4756 6742 c-6 -17 -18 -79 -97 -511 -34 -184 -36 -175 44 -186 60
-9 62 -6 77 90 18 109 16 107 58 99 20 -4 39 -8 41 -10 3 -3 8 -50 12 -105 3
-55 10 -104 15 -109 5 -5 35 -11 67 -15 l59 -8 -8 117 c-7 113 -6 118 15 132
33 23 49 64 71 176 33 173 34 199 11 235 -29 46 -61 59 -216 87 -76 15 -139
26 -141 26 -1 0 -5 -8 -8 -18z m212 -163 c16 -6 22 -16 22 -36 -1 -44 -26
-163 -37 -174 -6 -6 -33 -7 -66 -3 -43 5 -57 11 -57 23 0 16 29 175 36 199 4
13 53 9 102 -9z"/>
<path d="M2830 6373 c-30 -20 -56 -37 -58 -38 -2 -2 54 -96 121 -202 l27 -43
-41 -25 c-62 -40 -64 -40 -96 12 -16 26 -50 80 -75 120 l-45 71 -52 -30 c-29
-17 -55 -36 -58 -43 -3 -10 335 -574 362 -603 5 -6 115 64 115 73 0 6 -29 59
-66 119 -36 60 -66 113 -67 118 -1 4 21 21 48 37 l50 30 74 -119 75 -119 35
20 c20 11 47 28 60 38 l25 19 -71 113 c-39 63 -119 193 -178 289 -59 96 -113
181 -119 187 -9 10 -23 5 -66 -24z"/>
<path d="M5839 6368 c-14 -24 -57 -92 -94 -153 -177 -287 -248 -406 -244 -409
9 -9 277 -175 308 -191 33 -17 35 -17 49 1 18 25 54 95 50 99 -2 1 -51 32
-110 69 l-107 67 36 59 c19 33 37 60 39 60 3 0 41 -22 85 -50 44 -27 84 -50
87 -50 6 0 55 78 70 111 1 3 -36 29 -83 58 -95 58 -92 49 -36 136 14 22 26 41
27 43 0 1 49 -27 108 -63 58 -36 110 -65 115 -65 10 0 71 91 71 106 0 9 -324
214 -338 214 -4 0 -19 -19 -33 -42z"/>
<path d="M4193 5719 c-62 -18 -79 -95 -32 -145 l20 -22 -31 -50 c-18 -30 -35
-76 -42 -114 -6 -35 -16 -72 -23 -83 -10 -16 -10 -26 1 -52 8 -18 18 -33 23
-33 5 0 19 -32 31 -70 15 -46 36 -85 61 -114 44 -50 53 -98 20 -116 -25 -13
-35 -44 -22 -69 8 -14 7 -22 -4 -31 -32 -27 -329 9 -550 66 -55 15 -105 26
-112 27 -19 1 -4 60 19 77 70 52 120 108 154 173 34 64 38 82 42 158 7 134 -2
137 -85 32 -192 -240 -225 -278 -241 -276 -9 1 -33 -3 -53 -9 -36 -10 -36 -10
-200 119 -210 165 -239 187 -243 182 -2 -2 12 -39 31 -82 19 -43 33 -83 31
-88 -2 -6 -39 23 -83 64 -77 72 -218 157 -234 142 -10 -11 130 -136 255 -227
66 -50 121 -98 135 -121 43 -69 142 -138 201 -139 21 -1 43 -13 70 -39 48 -46
51 -40 -77 -199 -168 -209 -204 -273 -231 -402 -19 -88 -7 -172 38 -269 44
-94 109 -165 198 -218 102 -61 198 -84 350 -85 110 -1 131 2 175 22 259 119
256 528 -6 767 -24 22 -79 69 -123 105 -119 98 -176 197 -153 263 5 16 12 24
16 19 10 -17 207 -71 397 -109 l180 -36 -28 -52 c-46 -85 -48 -121 -32 -450
23 -440 15 -545 -46 -610 -18 -19 -19 -29 -12 -126 9 -110 39 -198 84 -247 24
-24 24 1 -12 -587 -5 -82 -10 -184 -11 -225 -1 -61 -6 -85 -28 -125 -34 -63
-357 -613 -400 -679 -41 -65 -42 -121 -4 -166 41 -49 57 -52 229 -30 204 25
233 42 234 138 0 48 -4 58 -35 89 l-34 34 23 37 c62 100 311 532 326 567 13
29 19 83 24 195 6 152 44 622 51 628 2 2 38 -104 80 -235 42 -131 94 -292 116
-358 l41 -120 -3 -443 -4 -444 33 -29 c42 -38 63 -37 213 6 214 62 236 79 226
174 -7 63 -52 106 -111 106 l-44 0 -4 375 -5 375 -41 125 c-22 69 -75 242
-119 385 -76 255 -78 262 -78 366 1 62 6 123 15 148 10 32 11 44 2 53 -15 15
-17 524 -3 532 5 4 62 -52 126 -123 64 -70 127 -134 140 -141 26 -14 81 -7
109 13 30 22 36 85 35 414 l0 322 26 39 c25 37 28 39 83 41 85 3 222 18 230
25 8 8 -37 47 -96 82 -40 25 -48 26 -123 20 -65 -6 -82 -5 -95 8 -12 12 -37
16 -110 16 -98 0 -134 -10 -134 -35 0 -19 -21 -23 -187 -30 -100 -4 -143 -3
-148 5 -4 6 -18 15 -32 21 -21 8 -24 13 -18 38 5 22 1 35 -14 50 -26 26 -26
31 -3 31 30 0 118 58 151 99 79 99 82 248 6 347 -18 24 -23 39 -19 65 8 48
-10 87 -43 95 -15 4 -41 17 -58 29 -60 45 -95 56 -170 57 -73 1 -74 1 -80 30
-4 18 -19 37 -38 49 -35 21 -38 21 -84 8z m87 -31 c22 -21 20 -43 -8 -85 -21
-33 -25 -28 -7 7 22 42 19 55 -17 84 -26 20 -28 24 -11 20 12 -3 31 -15 43
-26z m-835 -656 c42 -35 48 -55 8 -22 -24 18 -43 35 -43 37 0 8 17 1 35 -15z
m-57 -74 c-2 -17 -9 -33 -16 -36 -11 -3 -12 0 -2 18 6 12 9 28 6 36 -3 8 -1
14 5 14 6 0 9 -14 7 -32z m78 -66 c-18 -16 -18 -16 -6 6 6 13 14 21 18 18 3
-4 -2 -14 -12 -24z m901 -28 c-3 -3 -12 -4 -19 -1 -8 3 -5 6 6 6 11 1 17 -2
13 -5z m583 -203 c19 -28 20 -40 18 -247 l-3 -216 -50 78 c-27 44 -80 122
-117 175 -37 54 -68 104 -68 113 0 9 -9 41 -19 71 l-19 55 118 0 119 0 21 -29z
m-1106 -329 c22 -44 43 -122 32 -122 -2 0 -12 26 -21 58 -9 31 -25 72 -36 90
-10 18 -14 30 -9 27 6 -4 21 -27 34 -53z m-724 -281 c44 -123 187 -230 355
-265 41 -8 58 -15 40 -15 -57 -2 -177 39 -245 83 -122 79 -187 186 -195 322
l-5 79 14 -70 c7 -38 24 -99 36 -134z m1000 -488 c44 -10 119 -15 230 -16 151
-1 158 -1 85 -9 -138 -15 -349 7 -404 43 -13 9 -13 9 4 4 11 -3 49 -13 85 -22z
m17 -165 c-3 -7 -5 -2 -5 12 0 14 2 19 5 13 2 -7 2 -19 0 -25z m73 -123 l35
-40 -33 30 c-19 17 -38 39 -44 50 -6 11 -7 16 -2 10 5 -5 25 -28 44 -50z m768
-1594 c-7 -12 -33 -31 -58 -42 -50 -24 -167 -37 -194 -22 -12 6 2 8 43 5 79
-6 165 21 194 60 23 31 35 31 15 -1z m-1248 -100 c15 -6 19 -10 9 -10 -16 -1
-99 54 -99 65 0 3 15 -6 33 -20 18 -14 44 -29 57 -35z m235 19 c-3 -5 -16 -15
-28 -21 -19 -9 -19 -8 3 10 28 23 34 26 25 11z"/>
<path d="M6736 5635 c-25 -20 -46 -40 -46 -44 0 -4 27 -45 61 -90 34 -45 60
-83 58 -85 -2 -2 -128 -29 -279 -61 -151 -31 -287 -62 -302 -69 l-28 -11 131
-173 130 -172 44 30 c24 17 47 35 50 40 4 6 -24 51 -61 101 -36 49 -65 91 -63
93 2 2 92 23 199 46 376 81 412 90 405 108 -8 22 -236 322 -245 322 -4 0 -28
-16 -54 -35z"/>
<path d="M1894 5566 c-34 -36 -74 -90 -89 -121 -25 -51 -27 -60 -16 -95 13
-45 42 -70 274 -245 143 -108 162 -118 208 -123 l51 -5 59 63 c68 70 119 153
119 190 0 39 -33 84 -102 139 l-63 50 -25 -24 c-14 -13 -33 -37 -43 -54 l-17
-29 50 -37 c27 -20 50 -39 50 -42 0 -16 -51 -91 -66 -97 -20 -8 -11 -13 -191
122 -89 66 -153 122 -153 131 0 21 57 91 74 91 7 0 32 -13 54 -30 23 -16 46
-30 50 -30 10 0 72 84 72 97 0 8 -59 56 -120 96 -14 10 -44 17 -70 17 -42 0
-48 -4 -106 -64z"/>
<path d="M1766 4735 c-13 -13 -16 -31 -14 -78 l3 -60 43 -15 c37 -12 42 -17
42 -44 0 -23 -4 -29 -17 -26 -10 2 -19 14 -21 26 -5 37 -46 26 -50 -13 -5 -47
16 -67 72 -67 63 -1 78 17 74 92 l-3 55 -45 16 c-35 13 -46 22 -48 41 -4 36
26 46 38 13 7 -18 17 -25 36 -25 25 0 26 2 21 41 -3 22 -8 43 -11 46 -3 3 -27
8 -54 11 -37 3 -52 0 -66 -13z"/>
<path d="M7025 4532 c-40 -5 -49 -15 -35 -41 16 -31 83 -27 88 5 4 27 -16 40
-53 36z"/>
<path d="M1804 4237 c-2 -7 -3 -74 -2 -148 3 -129 4 -134 25 -137 21 -3 22 -1
25 125 4 160 2 173 -23 173 -11 0 -22 -6 -25 -13z"/>
<path d="M7096 4080 c-16 -5 -33 -15 -37 -22 -12 -18 -11 -281 1 -312 9 -24
14 -26 77 -26 38 0 75 5 83 10 12 8 15 37 15 164 0 125 -3 158 -15 170 -19 19
-86 28 -124 16z m74 -180 l0 -120 -25 0 -25 0 0 120 0 120 25 0 25 0 0 -120z"/>
<path d="M6848 4068 c-16 -13 -21 -38 -19 -85 1 -18 7 -23 30 -23 25 0 30 4
33 28 2 19 9 28 26 30 20 3 22 -1 22 -40 0 -42 -1 -44 -55 -73 -45 -24 -56
-35 -61 -62 -9 -46 4 -123 22 -130 8 -3 48 -2 89 2 l75 7 0 44 c0 40 -2 44
-24 44 -13 0 -29 -7 -36 -15 -20 -24 -55 -15 -55 14 0 19 12 31 58 55 l58 31
-3 83 c-2 60 -7 85 -18 92 -22 14 -123 12 -142 -2z"/>
<path d="M1750 3604 l0 -145 27 3 c25 3 26 5 26 67 0 57 1 62 12 40 7 -13 19
-43 26 -66 11 -38 16 -43 41 -43 l28 0 0 146 0 145 -27 -3 c-27 -3 -28 -6 -33
-68 l-5 -65 -19 60 c-19 62 -29 75 -58 75 -16 0 -18 -14 -18 -146z"/>
<path d="M6876 3460 c-38 -12 -46 -25 -46 -77 0 -41 1 -43 29 -43 25 0 30 4
33 28 4 40 44 44 50 5 6 -46 -1 -60 -42 -78 -71 -32 -80 -46 -76 -126 2 -38 6
-73 9 -76 4 -3 45 -2 92 2 l86 7 -3 41 c-3 48 -27 60 -58 32 -26 -23 -55 -16
-55 14 0 20 12 31 58 55 l57 30 0 66 c0 80 -7 108 -29 114 -42 12 -78 14 -105
6z"/>
<path d="M7103 3463 c-31 -6 -53 -41 -53 -84 0 -44 4 -49 38 -40 20 5 28 15
30 35 3 21 8 27 25 24 17 -2 23 -11 25 -40 3 -35 1 -38 -55 -70 l-58 -34 -3
-76 -3 -75 32 -7 c18 -3 61 -3 96 0 55 6 63 9 63 28 -1 62 -25 82 -66 51 -32
-24 -56 -19 -52 12 2 21 15 34 58 58 l55 31 -1 77 c0 54 -4 82 -15 92 -15 15
-81 26 -116 18z"/>
<path d="M1767 3235 c-14 -13 -17 -37 -17 -126 0 -140 5 -149 75 -149 61 0 79
17 73 68 -4 36 -45 45 -50 10 -2 -15 -10 -23 -23 -23 -18 0 -20 8 -23 78 -3
74 6 107 28 107 5 0 13 -13 18 -29 8 -23 15 -28 31 -24 16 4 21 13 21 37 0 46
-13 58 -67 63 -38 4 -53 1 -66 -12z"/>
<path d="M1760 2599 l0 -152 53 7 c28 3 60 6 70 6 11 0 17 8 17 25 0 23 -4 25
-46 25 -45 0 -45 0 -42 33 3 28 7 32 36 35 28 3 33 7 30 25 -2 17 -11 23 -35
25 -29 3 -33 7 -33 33 0 23 4 29 23 29 46 0 68 12 65 34 -3 19 -10 21 -70 24
l-68 3 0 -152z"/>
<path d="M7027 2670 c-21 -3 -38 -8 -37 -12 0 -5 0 -17 0 -28 0 -17 7 -20 40
-20 44 0 60 18 44 48 -7 13 -18 16 -47 12z"/>
<path d="M2184 2117 c-240 -184 -455 -351 -465 -363 -9 -10 -3 -25 26 -64 20
-27 39 -50 42 -50 3 0 42 29 88 65 l83 64 42 -55 c114 -147 166 -143 375 33
80 67 104 114 85 167 -9 26 -171 249 -189 260 -4 3 -43 -23 -87 -57z m95 -176
c17 -21 31 -46 31 -54 0 -18 -134 -127 -155 -127 -19 0 -90 89 -79 99 27 26
157 121 164 121 5 0 22 -18 39 -39z"/>
<path d="M6534 2120 c-29 -11 -93 -79 -140 -146 -43 -64 -50 -121 -20 -166 10
-15 92 -85 184 -155 229 -177 239 -183 291 -183 40 0 49 5 92 49 80 83 119
149 119 201 0 59 -12 75 -118 156 -342 265 -348 268 -408 244z m221 -269 c91
-70 151 -125 153 -137 2 -11 -11 -36 -31 -58 -30 -35 -35 -38 -56 -27 -32 18
-305 230 -313 244 -11 20 58 106 79 100 10 -2 86 -57 168 -122z"/>
<path d="M2817 1332 c-280 -451 -270 -433 -256 -447 20 -18 277 -175 287 -175
9 0 77 109 71 114 -2 2 -42 27 -89 56 -47 29 -86 54 -88 55 -1 1 40 69 91 151
113 181 207 335 207 339 0 1 -27 19 -60 38 l-60 36 -103 -167z"/>
<path d="M5857 1471 c-26 -15 -52 -32 -58 -38 -8 -8 10 -45 60 -128 39 -64 71
-120 71 -123 0 -8 -100 -66 -104 -60 -1 1 -33 54 -71 116 -37 62 -71 115 -75
117 -8 5 -120 -63 -120 -74 0 -4 4 -11 9 -16 5 -6 86 -138 181 -295 95 -157
173 -287 175 -289 2 -2 31 14 65 34 l61 37 -17 27 c-10 14 -43 69 -75 122 -55
95 -56 97 -35 107 11 6 35 20 52 32 l31 20 66 -107 c37 -60 71 -114 76 -122
12 -19 124 47 118 70 -4 14 -341 576 -355 591 -4 4 -29 -5 -55 -21z"/>
<path d="M3716 1093 c-11 -39 -126 -641 -126 -661 0 -12 2 -22 4 -22 2 0 86
-16 186 -36 100 -19 187 -33 195 -31 12 5 38 117 29 126 -2 2 -59 15 -126 28
-67 13 -123 25 -125 27 -5 5 19 120 27 129 4 5 48 0 98 -9 51 -10 94 -15 97
-12 3 3 11 31 17 62 15 69 17 68 -104 91 -63 13 -88 21 -84 30 2 7 10 41 17
74 9 49 15 61 28 57 54 -16 236 -45 241 -39 11 12 29 117 22 125 -7 6 -355 78
-379 78 -6 0 -14 -8 -17 -17z"/>
<path d="M4845 1064 c-133 -26 -165 -53 -165 -137 0 -64 65 -437 86 -494 30
-83 85 -99 234 -68 153 32 180 77 147 240 -7 33 -17 60 -22 60 -6 0 -34 -4
-63 -8 l-54 -8 7 -69 7 -69 -39 -10 c-21 -6 -50 -11 -65 -11 -24 0 -28 5 -37
53 -26 125 -61 324 -61 345 0 27 33 42 90 42 35 0 40 -3 46 -27 19 -84 21 -88
41 -91 12 -2 40 2 62 8 47 12 50 25 27 121 -18 73 -31 96 -69 119 -37 23 -74
24 -172 4z"/>
</g>
</svg>
