<svg xmlns="http://www.w3.org/2000/svg" version="1.0" width="677.000000" height="1319.000000" preserveAspectRatio="xMidYMid meet" style=""><rect id="backgroundrect" width="100%" height="100%" x="0" y="0" fill="none" stroke="none"/>


<g class="currentLayer" style=""><title>Layer 1</title><g transform="translate(0,1319) scale(0.10000000149011612,-0.10000000149011612) " fill="#ffffff" stroke="none" id="svg_1" class="selected" fill-opacity="1">
<path d="M3653.937342696034,9455.871549006552 c-54.45598239806075,-28.71315435534112 -90.09989814951868,-94.060333233014 -96.04055077476168,-174.25914367379437 c-5.94065262524299,-76.23837535728505 20.792284188350465,-128.71414021359814 83.16913675340186,-165.34816473592988 l46.53511223107009,-26.732936813593458 l-28.71315435534112,-19.802175417476633 c-57.42630871068224,-40.5944596058271 -148.51631563107475,-141.58555423495793 -174.25914367379437,-195.05142786214486 c-32.673589438836444,-68.3175051902944 -57.42630871068224,-162.3778384233084 -57.42630871068224,-220.79425590486446 c0,-39.604350834953266 -2.970326312621495,-45.545003460196256 -25.742828042719623,-50.495547314565414 c-33.663698209710276,-8.910978937864485 -57.42630871068224,-65.34717887767289 -51.485656085439246,-126.73392267185046 c5.94065262524299,-55.44609116893458 29.703263126214953,-96.04055077476168 67.32739641942055,-109.90207356699531 c25.742828042719623,-9.901087708738316 27.72304558446729,-14.851631563107476 33.663698209710276,-87.12957183689718 c7.920870166990654,-95.05044200388784 46.53511223107009,-231.68545238447663 87.12957183689718,-307.92382774176167 c16.831849104855138,-31.683480667962616 52.47576485631308,-83.16913675340186 80.19881044078038,-113.86250865049064 l49.50543854369158,-56.43619993980841 l-4.950543854369158,-86.13946306602335 c-7.920870166990654,-133.66468406796727 -57.42630871068224,-226.73490853010748 -155.4470770271916,-292.08208740778036 c-39.604350834953266,-25.742828042719623 -49.50543854369158,-27.72304558446729 -128.71414021359814,-26.732936813593458 c-197.0316454038925,2.970326312621495 -609.9070028582804,122.77348758835514 -1114.8624760039347,322.7754593048691 c-233.6656699262243,93.07022446214017 -215.84371205049533,83.16913675340186 -198.02175417476633,108.9119647961215 c7.920870166990654,11.88130525048598 14.851631563107476,41.58456837670093 14.851631563107476,67.32739641942055 l0,46.53511223107009 l98.02076831650933,65.34717887767289 c216.83382082136913,144.55588054757945 360.3995925980747,330.69632947185977 427.72698901749527,555.4510204602195 c22.772501730098128,77.22848412815887 36.63402452233177,294.06230494952797 22.772501730098128,349.5083961184626 l-8.910978937864485,31.683480667962616 l-385.15231186992054,-391.0929644951635 c-345.5479610349673,-352.4787224310841 -386.14242064079434,-390.1028557242897 -400.99405220390184,-377.2314417029299 c-42.57467714757476,37.6241332932056 -136.6350103805888,38.614242064079434 -209.9030594252523,0.9901087708738315 l-27.72304558446729,-14.851631563107476 l-352.4787224310841,344.5578522640934 c-194.061319091271,189.11077523690184 -356.4391575145794,344.5578522640934 -361.3897013689486,346.5380698058411 c-4.950543854369158,1.9802175417476633 -21.782392959224296,-19.802175417476633 -37.6241332932056,-47.52522100194392 l-28.71315435534112,-50.495547314565414 l16.831849104855138,-93.07022446214017 c8.910978937864485,-51.485656085439246 14.851631563107476,-94.060333233014 12.871414021359811,-94.060333233014 c-1.9802175417476633,0 -24.75271927184579,15.841740333981308 -49.50543854369158,34.65380698058411 c-24.75271927184579,18.8120666466028 -46.53511223107009,33.663698209710276 -48.51532977281775,32.673589438836444 c-0.9901087708738315,-1.9802175417476633 -13.861522792233645,-22.772501730098128 -26.732936813593458,-46.53511223107009 l-25.742828042719623,-43.56478591844859 l127.7240314427243,-134.6547928388411 c69.30761396116822,-74.25815781553737 154.45696825631774,-170.29870859029904 188.120666466028,-213.86349450874764 c138.61522792233643,-176.23936121554206 326.7358943883645,-335.64687332622896 446.5390556640981,-378.2215504738037 c38.614242064079434,-13.861522792233645 47.52522100194392,-21.782392959224296 52.47576485631308,-45.545003460196256 c7.920870166990654,-39.604350834953266 61.38674379417757,-89.10978937864485 119.80316127573364,-110.89218233786916 c27.72304558446729,-9.901087708738316 51.485656085439246,-19.802175417476633 53.465873627186916,-21.782392959224296 c13.861522792233645,-10.891196479612148 -84.1592455242757,-119.80316127573364 -303.96339265826634,-339.6073084097243 c-295.0524137204019,-293.07219617865417 -375.2512241611822,-383.1720943281729 -467.3313398524486,-521.7873222505093 c-309.9040452835093,-468.3214486233224 -300.002957574771,-910.9000692039251 29.703263126214953,-1274.2699881146216 c190.10088400777568,-209.9030594252523 462.3807959980794,-386.14242064079434 698.0266834660513,-452.4797082893411 c237.62610500971962,-66.33728764854672 492.08405912429436,-63.36696133592523 690.1058132990607,6.930761396116822 c482.18297141555604,173.26903490292054 658.4223326310981,546.5400415223552 521.7873222505093,1101.0009532117008 c-35.64391575145794,144.55588054757945 -84.1592455242757,276.24034707379906 -137.6251191514626,373.27100661943456 c-100.99109462913083,182.18001384078502 -272.27991199030373,400.99405220390184 -408.9149223708925,521.7873222505093 c-169.3085998194252,150.4965331728224 -220.79425590486446,208.91295065437848 -268.3194769068084,306.9337189708878 c-34.65380698058411,69.30761396116822 -48.51532977281775,111.88229110874299 -57.42630871068224,172.2789261320467 c-9.901087708738316,77.22848412815887 -4.950543854369158,172.2789261320467 10.891196479612148,172.2789261320467 c3.960435083495327,0 82.17902798252803,-31.683480667962616 175.24925244466823,-70.29772273204205 c480.2027538738084,-200.99208048738782 912.8802867456728,-348.51828734758874 1087.1394304194673,-370.30068030681304 l56.43619993980841,-6.930761396116822 l-28.71315435534112,-17.82195787572897 c-63.36696133592523,-38.614242064079434 -126.73392267185046,-150.4965331728224 -151.48664194369627,-267.32936813593454 c-15.841740333981308,-76.23837535728505 -132.67457529709344,-1518.8268545204578 -143.56577177670562,-1777.245243718528 c-6.930761396116822,-181.1899050699112 -18.8120666466028,-210.89316819612617 -130.69435775534578,-336.6369820971028 c-129.70424898447195,-146.53609808932708 -148.51631563107475,-185.15034015340652 -110.89218233786916,-222.77447344661215 c20.792284188350465,-20.792284188350465 20.792284188350465,-23.76261050097196 8.910978937864485,-130.69435775534578 c-13.861522792233645,-128.71414021359814 -6.930761396116822,-303.96339265826634 16.831849104855138,-389.11274695341586 c21.782392959224296,-84.1592455242757 69.30761396116822,-168.3184910485514 117.82294373398597,-210.89316819612617 l41.58456837670093,-36.63402452233177 l-126.73392267185046,-997.0395322699486 c-79.20870166990653,-622.7784168796402 -131.68446652621964,-1003.9702936660653 -139.6053366932103,-1015.8515989165513 c-6.930761396116822,-9.901087708738316 -128.71414021359814,-166.33827350680372 -270.299694448556,-348.51828734758874 c-409.9050311417663,-526.7378661048785 -696.0464659243037,-904.9594165786822 -849.5133254097476,-1121.7932374000513 c-113.86250865049064,-160.39762088156075 -138.61522792233643,-276.24034707379906 -81.1889192116542,-382.1819855572991 c27.72304558446729,-49.50543854369158 81.1889192116542,-102.97131217087849 129.70424898447195,-127.7240314427243 c80.19881044078038,-41.58456837670093 598.0256976077943,-62.3768525650514 729.7101641340139,-28.71315435534112 c176.23936121554206,44.554894689322424 260.39860673981775,138.61522792233643 259.4084979689439,289.1117610951589 c-0.9901087708738315,60.39663502330374 -43.56478591844859,155.4470770271916 -100.99109462913083,226.73490853010748 l-39.604350834953266,49.50543854369158 l81.1889192116542,108.9119647961215 c44.554894689322424,60.39663502330374 258.4183891980701,355.4490487437056 476.24231879031305,654.4618975476028 l397.0336171204065,544.5598239806075 l136.6350103805888,910.9000692039251 c75.2482665864112,500.99503806215887 139.6053366932103,913.8703955165466 142.57566300583176,917.830830600042 c2.970326312621495,3.960435083495327 95.05044200388784,-345.5479610349673 202.97229802913552,-775.2551675942102 l198.02175417476633,-783.1760377612009 l-37.6241332932056,-377.2314417029299 c-123.76359635922897,-1279.2205319689906 -145.54598931845325,-1483.1829387689997 -159.40751211068692,-1541.599356250556 c-17.82195787572897,-77.22848412815887 -18.8120666466028,-90.09989814951868 -2.970326312621495,-140.5954454640841 c17.82195787572897,-58.416417481556074 85.14935429514952,-127.7240314427243 167.32838227767758,-171.2888173611729 l72.27794027378972,-37.6241332932056 l128.71414021359814,6.930761396116822 c319.80513299224765,15.841740333981308 550.5004766058504,74.25815781553737 655.4520063184766,166.33827350680372 c59.406526252429906,52.47576485631308 77.22848412815887,104.95152971262615 76.23837535728505,217.823929592243 c-2.970326312621495,184.16023138253271 -68.3175051902944,249.5074102602056 -259.4084979689439,257.4282804271963 l-62.3768525650514,2.970326312621495 l4.950543854369158,54.45598239806075 c2.970326312621495,29.703263126214953 39.604350834953266,421.78633639225234 81.1889192116542,871.295718368972 l76.23837535728505,816.8397359709112 l-189.11077523690184,908.9198516621775 l-189.11077523690184,908.9198516621775 l21.782392959224296,219.80414713399063 c18.8120666466028,201.98218925826166 22.772501730098128,222.77447344661215 45.545003460196256,252.47773657282707 c32.673589438836444,42.57467714757476 39.604350834953266,112.87239987961682 17.82195787572897,177.22946998641586 c-16.831849104855138,46.53511223107009 -15.841740333981308,64.35707010679907 35.64391575145794,639.6102659844953 c28.71315435534112,324.7556768466168 54.45598239806075,591.0949362116776 57.42630871068224,591.0949362116776 c2.970326312621495,-0.9901087708738315 33.663698209710276,-41.58456837670093 68.3175051902944,-91.09000692039251 c85.14935429514952,-118.81305250485981 279.2106733864206,-368.32046276506543 369.31057153593923,-473.2719924776915 c138.61522792233643,-161.38772965243456 279.2106733864206,-195.05142786214486 387.1325294116682,-91.09000692039251 c78.2185928990327,74.25815781553737 85.14935429514952,100.99109462913083 110.89218233786916,411.88524868351396 c23.76261050097196,275.2502383029252 103.96142094175234,1263.3787916350093 103.96142094175234,1275.2600968854954 c0,2.970326312621495 15.841740333981308,8.910978937864485 34.65380698058411,11.88130525048598 c45.545003460196256,8.910978937864485 100.00098585825701,56.43619993980841 113.86250865049064,100.99109462913083 c11.88130525048598,33.663698209710276 12.871414021359811,34.65380698058411 52.47576485631308,28.71315435534112 c81.1889192116542,-9.901087708738316 602.9762414621634,-55.44609116893458 611.887220400028,-52.47576485631308 c4.950543854369158,1.9802175417476633 -47.52522100194392,59.406526252429906 -116.83283496311215,128.71414021359814 l-126.73392267185046,125.74381390097662 l-206.93273311263084,17.82195787572897 c-189.11077523690184,15.841740333981308 -208.91295065437848,18.8120666466028 -227.72501730098128,39.604350834953266 c-11.88130525048598,11.88130525048598 -33.663698209710276,26.732936813593458 -50.495547314565414,32.673589438836444 c-51.485656085439246,19.802175417476633 -224.75469098835978,39.604350834953266 -347.52817857671494,39.604350834953266 c-132.67457529709344,0 -209.9030594252523,-16.831849104855138 -246.5370839475841,-53.465873627186916 c-15.841740333981308,-15.841740333981308 -31.683480667962616,-21.782392959224296 -50.495547314565414,-18.8120666466028 c-480.2027538738084,56.43619993980841 -600.005915149542,77.22848412815887 -694.066248382556,121.78337881748129 c-48.51532977281775,22.772501730098128 -68.3175051902944,38.614242064079434 -91.09000692039251,74.25815781553737 c-28.71315435534112,46.53511223107009 -50.495547314565414,118.81305250485981 -50.495547314565414,172.2789261320467 c0,26.732936813593458 2.970326312621495,27.72304558446729 71.28783150291588,40.5944596058271 c149.50642440194858,26.732936813593458 267.32936813593454,83.16913675340186 355.4490487437056,170.29870859029904 c63.36696133592523,63.36696133592523 138.61522792233643,177.22946998641586 162.3778384233084,245.54697517671028 c43.56478591844859,122.77348758835514 21.782392959224296,342.5776347223458 -56.43619993980841,582.183957273813 l-19.802175417476633,62.3768525650514 l20.792284188350465,22.772501730098128 c51.485656085439246,55.44609116893458 44.554894689322424,138.61522792233643 -18.8120666466028,204.95251557088315 c-37.6241332932056,40.5944596058271 -87.12957183689718,55.44609116893458 -128.71414021359814,40.5944596058271 c-21.782392959224296,-7.920870166990654 -30.693371897088785,-2.970326312621495 -75.2482665864112,36.63402452233177 c-80.19881044078038,73.26804904466354 -191.09099277864954,144.55588054757945 -271.2898032194299,175.24925244466823 c-65.34717887767289,23.76261050097196 -88.11968060777103,27.72304558446729 -190.10088400777568,27.72304558446729 l-116.83283496311215,0.9901087708738315 l0,56.43619993980841 c0,67.32739641942055 -11.88130525048598,101.98120340000466 -47.52522100194392,139.6053366932103 c-54.45598239806075,57.42630871068224 -209.9030594252523,75.2482665864112 -290.1018698660327,33.663698209710276 zm1273.2798793437478,-2462.40051316322 c114.85261742136449,-10.891196479612148 210.89316819612617,-19.802175417476633 214.8536032796215,-19.802175417476633 c3.960435083495327,0 9.901087708738316,-9.901087708738316 13.861522792233645,-21.782392959224296 c2.970326312621495,-11.88130525048598 24.75271927184579,-41.58456837670093 48.51532977281775,-66.33728764854672 l41.58456837670093,-45.545003460196256 l-44.554894689322424,-485.15329772817756 c-24.75271927184579,-266.33925936506074 -46.53511223107009,-487.13351526992517 -49.50543854369158,-490.1038415825467 c-15.841740333981308,-18.8120666466028 -148.51631563107475,227.72501730098128 -247.52719271845794,460.40057845633174 c-90.09989814951868,210.89316819612617 -269.3095856776822,672.2838554233317 -269.3095856776822,693.0761396116822 c0,1.9802175417476633 18.8120666466028,1.9802175417476633 42.57467714757476,0 c22.772501730098128,-2.970326312621495 135.64490160971496,-13.861522792233645 249.5074102602056,-24.75271927184579 z" id="svg_2" fill="#ffffff" fill-opacity="1"/>
</g></g></svg>